<svg width="24" height="24" viewBox="0 0 24 24" xmlns="http://www.w3.org/2000/svg"><path fill="#0077B5" fill-rule="evenodd" d="M18.337 18.338H15.67V14.16c0-.996-.019-2.278-1.387-2.278-1.39 0-1.602 1.085-1.602 2.206v4.249h-2.666v-8.59h2.559v1.174h.037c.356-.676 1.227-1.388 2.526-1.388 2.701 0 3.2 1.779 3.2 4.092v4.712zM7.005 8.574a1.548 1.548 0 1 1-.003-3.095 1.548 1.548 0 0 1 .003 3.095zm-1.337 9.764H8.34v-8.59H5.668v8.59zM19.667 3H4.327C3.597 3 3 3.58 3 4.297V19.7c0 .718.596 1.3 1.328 1.3h15.339C20.4 21 21 20.418 21 19.7V4.297C21 3.58 20.4 3 19.667 3z"/></svg>