<svg height="24" viewBox="0 0 24 24" width="24" xmlns="http://www.w3.org/2000/svg" xmlns:xlink="http://www.w3.org/1999/xlink"><linearGradient id="a" x1="0%" y1="100%" y2="0%"><stop offset="0" stop-color="#ffd520"/><stop offset=".497" stop-color="#f50000"/><stop offset="1" stop-color="#b900b4"/></linearGradient><path d="m12 3c-2.444625 0-2.750625.01125-3.71025.054-.9585.045-1.611.19575-2.18475.4185-.59175.2295-1.094625.53775-1.594125 1.038375-.500625.4995-.81 1.00125-1.038375 1.594125-.22275.57375-.374625 1.22625-.4185 2.18475-.045.959625-.054 1.265625-.054 3.71025s.01125 2.750625.054 3.71025c.045.9585.19575 1.612125.4185 2.18475.2295.59175.53775 1.094625 1.038375 1.594125.4995.500625 1.00125.81 1.594125 1.038375.57375.22275 1.22625.374625 2.18475.4185.959625.045 1.265625.054 3.71025.054s2.750625-.01125 3.71025-.054c.9585-.045 1.612125-.19575 2.18475-.4185.59175-.2295 1.094625-.53775 1.594125-1.038375.500625-.4995.81-1.00125 1.038375-1.594125.22275-.57375.374625-1.22625.4185-2.18475.045-.959625.054-1.265625.054-3.71025s-.01125-2.750625-.054-3.71025c-.045-.9585-.19575-1.612125-.4185-2.18475-.2295-.59175-.53775-1.094625-1.038375-1.594125-.4995-.500625-1.00125-.81-1.594125-1.038375-.57375-.22275-1.22625-.374625-2.18475-.4185-.959625-.045-1.265625-.054-3.71025-.054zm0 1.62c2.403 0 2.68875.01125 3.637125.054.8775.0405 1.353375.18675 1.670625.3105.42075.163125.72.35775 1.035.67275s.509625.61425.67275 1.035c.12375.31725.27.793125.3105 1.670625.04275.9495.052875 1.234125.052875 3.637125s-.01125 2.68875-.05625 3.637125c-.045.8775-.19125 1.353375-.315 1.670625-.16875.42075-.36.72-.675 1.035s-.61875.509625-1.035.67275c-.315.12375-.79875.27-1.67625.3105-.95625.04275-1.2375.052875-3.645.052875s-2.68875-.01125-3.645-.05625c-.8775-.045-1.36125-.19125-1.67625-.315-.4275-.16875-.72-.36-1.035-.675s-.5175-.61875-.675-1.035c-.12375-.315-.27-.79875-.315-1.67625-.03375-.945-.045-1.2375-.045-3.63375s.01125-2.68875.045-3.645c.045-.8775.19125-1.36125.315-1.67625.1575-.4275.36-.72.675-1.035s.6075-.5175 1.035-.675c.315-.12375.7875-.27 1.665-.315.95625-.03375 1.2375-.045 3.645-.045zm0 2.7585c-2.55375 0-4.6215 2.07-4.6215 4.6215 0 2.55375 2.07 4.6215 4.6215 4.6215 2.55375 0 4.6215-2.07 4.6215-4.6215 0-2.55375-2.07-4.6215-4.6215-4.6215zm0 7.621875c-1.657125 0-3.000375-1.34325-3.000375-3.000375s1.34325-3.000375 3.000375-3.000375 3.000375 1.34325 3.000375 3.000375-1.34325 3.000375-3.000375 3.000375zm5.88375-7.804125c0 .59625-.48375 1.08-1.08 1.08s-1.08-.48375-1.08-1.08.48375-1.08 1.08-1.08 1.08.48375 1.08 1.08z" fill="url(#a)" fill-rule="evenodd"/></svg>